<svg width="18" height="20" viewBox="0 0 18 20" fill="none" xmlns="http://www.w3.org/2000/svg">
<path d="M1.28999 10.9169L7.92999 18.5569C8.19999 18.8669 8.58999 19.0469 8.99999 19.0469C9.40999 19.0469 9.79999 18.8669 10.07 18.5569L16.71 10.9169C17.07 10.4969 17.16 9.90687 16.93 9.40687C16.7 8.90687 16.2 8.58687 15.65 8.58687L12.98 8.58687L12.98 2.35688C12.98 1.57688 12.35 0.946876 11.57 0.946876L6.45999 0.946876C5.67999 0.946876 5.04999 1.57687 5.04999 2.35688L5.04999 8.58687L2.37999 8.58687C1.82999 8.58687 1.32999 8.90687 1.09999 9.40687C0.869988 9.90687 0.949988 10.4969 1.31999 10.9169L1.28999 10.9169Z" fill="#FFD912" stroke="#FFD912" stroke-width="0.1" stroke-linejoin="round"/>
</svg>
