<svg width="18" height="20" viewBox="0 0 18 20" fill="none" xmlns="http://www.w3.org/2000/svg">
<path d="M16.71 9.08313L10.07 1.44313C9.80001 1.13313 9.41001 0.953125 9.00001 0.953125C8.59001 0.953125 8.20001 1.13313 7.93001 1.44313L1.29001 9.08313C0.930012 9.50313 0.840012 10.0931 1.07001 10.5931C1.30001 11.0931 1.80001 11.4131 2.35001 11.4131H5.02001V17.6431C5.02001 18.4231 5.65001 19.0531 6.43001 19.0531H11.54C12.32 19.0531 12.95 18.4231 12.95 17.6431V11.4131H15.62C16.17 11.4131 16.67 11.0931 16.9 10.5931C17.13 10.0931 17.05 9.50313 16.68 9.08313H16.71Z" fill="#FFD912" stroke="#FFD912" stroke-width="0.1" stroke-linejoin="round"/>
</svg>
